<svg xmlns="http://www.w3.org/2000/svg" xmlns:xlink="http://www.w3.org/1999/xlink" viewBox="0 0 128 128">
  <path fill="#666" d="M53.883263 4.3179364c1.325278.8210554 2.526318 2.5327464 3.491581 5.1334822l5.182075 13.4828374c.0031.01318.01122.0182.0193.02323l.0082.0052c6.190804 1.630205 20.519732 9.719927 20.519732 9.719927 7.554388 4.713979 13.259639 9.452474 17.442209 14.215216l.008.0052c.008.0052.0163.01009.0295.0071l14.37989-1.363468c2.75851-.293717 4.82595.01946 6.15122.840577 2.20329 1.36507 2.37242 4.125072.32678 7.808271l-12.40279 24.59578-.004.0082c-1.29394 5.611599-3.72817 11.247959-6.85687 16.915438-1.0274 2.221295-2.20697 4.415783-3.5418 6.570413-14.648568 23.64303-49.927096 27.72077-68.749205 16.05969C10.666212 106.43714-.9976891 73.288173 13.655386 49.636544c1.274399-2.057024 2.645573-3.997831 4.102288-5.840636 3.793165-5.559589 7.881959-10.452227 12.4881-14.236756l.0052-.0082L46.751418 7.4939555c2.382047-3.4635033 4.928604-4.5410983 7.131971-3.1760302m1.495973-2.4147651c-1.349692-.8361674-6.136507-3.0254484-10.938968 3.9453193L28.178935 27.592339c-4.323006 3.599911-8.485322 8.356991-12.703906 14.530611-1.525292 1.935339-2.951873 3.965576-4.226271 6.02259-7.2182398 11.651009-8.9594457 26.211444-4.914805 41.003579 3.708174 13.537311 11.958649 25.354431 22.064861 31.615631 20.342516 12.60297 57.286093 7.83537 72.659476-16.9789 1.35499-2.18709 2.58998-4.470992 3.65961-6.778635 3.45579-6.2862 5.74912-11.931129 7.00563-17.228285l12.22871-24.242271c4.10019-7.417131.0117-10.715251-1.33814-11.55142-1.91879-1.188769-4.59493-1.609108-7.94829-1.245125l-12.94583 1.228045c-4.3669-4.719439-10.11016-9.323956-17.108574-13.682245l-.0082-.0052-.09757-.06044c-.559779-.312935-12.880839-7.248719-19.790139-9.571582L60.032146 8.4311769c-1.157936-3.1251436-2.725914-5.3341962-4.652848-6.5280009Z"/>
  <path fill="#999" d="m109.18671 78.569602.004-.0082 12.32895-24.632786c3.27019-5.916178.83791-9.44577-6.49877-8.637571l-14.37584 1.406507c-.0163-.01004-.0295-.007-.0376-.0119-4.191794-4.758335-9.919347-9.484746-17.484685-14.162934 0 0-14.361223-8.051808-20.556879-9.663472-.01634-.01004-.01937-.02317-.02761-.02825L57.316963 9.3638043c-2.576426-6.9087641-6.83156-7.4946777-10.639392-1.9093458L30.243203 29.560804l-.0052.0082c-5.506942 4.550764-10.315137 10.35084-14.712613 17.314025C.70946902 70.355977 7.276626 102.42927 30.763991 117.13046l-.02.0331c23.730486 14.52512 54.96023 6.35295 69.283659-17.524171 4.23949-7.071514 7.58621-14.097376 9.15905-21.069373z"/>
  <defs>
    <path id="a" d="M116.26 69.08c0 29.08-29.11 52.13-52.26 52.13-23.64 0-52.26-23.04-52.26-52.13S30.59 16.42 64 16.42 116.26 40 116.26 69.08z"/>
  </defs>
  <clipPath id="b">
    <use xlink:href="#a"/>
  </clipPath>
  <path fill="#e3e2db" d="M108.97 61.01c-5.3-1.14-14.41-.19-19.02 14.62-1 3.22-4.16 7.06-7.34 7.14-6.3.15-7.57-7.58-18.8-7.58s-12.05 7.72-18.35 7.58c-3.17-.07-6.43-3.92-7.44-7.14C33.41 60.82 24.3 59.87 19 61.01c-22.7 4.87-4.91 38.57 4 48.1 21.29 22.75 60.14 23.43 82.07 0 8.91-9.53 26.6-43.23 3.9-48.1z" clip-path="url(#b)" transform="rotate(31.78 41.28633164 62.12828602) scale(.95644)"/>
  <ellipse cx="68.135674" cy="26.80657" rx="6.2168679" ry="7.1733122" transform="rotate(31.78)"/>
  <ellipse cx="107.34974" cy="26.80657" rx="6.2168679" ry="7.1733122" transform="rotate(31.78)"/>
  <linearGradient id="c" x1="64" x2="64" y1="93.235" y2="75.832" gradientTransform="rotate(31.78 41.28633097 62.12828944) scale(.95644)" gradientUnits="userSpaceOnUse">
    <stop offset="0"/>
    <stop offset=".3547" stop-color="#262626"/>
    <stop offset=".8372" stop-color="#575757"/>
  </linearGradient>
  <path fill="url(#c)" d="M44.048285 96.031549c-3.927035-2.432947-7.335741-8.662712-5.084125-12.297052l.110807-.178874c2.251615-3.634329 8.229804-5.274933 12.156842-2.841988l2.853806 1.768038c3.927038 2.432943 5.119938 8.516314 2.868334 12.150652l-.05541.0895c-2.243478 3.639378-8.915086 3.747761-12.850249 1.309783z"/>
  <path d="M68.055552 107.02327c.01443-.20483-.115246-.43151-.483069-.63687-1.023294-.60013-2.119385-.1204-3.06631.13681-.862878.23049-1.697117.52376-2.556906.76742-2.279589.6467-4.661618.76862-7.150767.46414-5.364746-.65714-6.921233-2.5216-6.921233-2.5216-.522568-.62748-1.197752-1.13576-1.700175-1.79587-1.294359-1.72449-2.051223-3.4086-4.016855-4.648806-1.242023-.79198-2.683591-1.280044-4.105532-1.418414-1.477701-.139155-2.942239-.2814-4.362071-.913519 0 0-2.326803-.5302-5.298914-5.049312-1.135198-1.727158-2.042656-3.549505-2.528751-5.470833-.47257-1.834184-.579182-3.677928-1.173356-5.497449-.08941-.291631-.200009-.585215-.396642-.83079-.269021-.34669-.816499-.607119-1.21117-.424092-.394684.183035-.423121.68297-.440708 1.110867-.292759 5.466734-3.491815 22.870558 11.078053 31.897248 14.569857 9.02654 28.58204-1.53193 33.49222-4.31805.393524-.21748.819217-.50515.842186-.85088z"/>
  <defs>
    <path id="d" d="M74 102.63c0 5.01 1 17.94-10 17.94s-11-12.93-11-17.94v-1.56c0-5.01 4.06-9.07 9.07-9.07h2.86c5.01 0 9.07 4.06 9.07 9.07v1.56z"/>
  </defs>
  <clipPath id="e">
    <use xlink:href="#d"/>
  </clipPath>
  <path fill="#ff9085" d="M46.56 111.09c0-3.92912 4.182948-11.460615 10.182571-13.478741 2.352862-.791445 7.734664-1.619284 10.005088.0627C81.713198 108.76082 82.4 105.62 82.4 111.09S74.37 121 64.48 121c-9.89 0-17.92-4.44-17.92-9.91z" clip-path="url(#e)" transform="matrix(.76537 .28342 -.28335 .76606 19.553896 7.408911)"/>
  <path fill="#f9f9f9" d="m53.6111564 10.16886587 3.42214131 9.89469994c.46964828 1.34857423-.64418496 2.72873286-2.06223538 2.54777456l-9.21732767-1.17622894c-1.41805041-.1809583-2.15636078-1.78598744-1.36013897-2.98037727l5.79518636-8.718471c.87681587-1.3244779 2.89430744-1.07592685 3.42237434.43260271zm62.58861364 38.77581637-10.38345312 1.34165548c-1.41662846.17996038-2.15645856 1.79182693-1.3630121 2.98096762l5.15740198 7.72941452c.79344646 1.1891407 2.55933108 1.13554718 3.27424786-.10921394l5.22605113-9.07107c.79551084-1.37484918-.32537183-3.0706298-1.91123575-2.87175368z"/>
</svg>